<svg xmlns="http://www.w3.org/2000/svg" viewBox="0 0 314.76 102.31"><defs><style>.cls-1{font-size:40.23px;}.cls-1,.cls-3{fill:#64cc9a;font-family:Futura-Medium, Futura;}.cls-2{letter-spacing:0.01em;}.cls-3{font-size:49.88px;}.cls-4{letter-spacing:-0.04em;}.cls-5{letter-spacing:0.04em;}.cls-6{fill:#3e7f60;}.cls-7{fill:#367f5c;}.cls-8{fill:#7dffc0;}.cls-9{fill:#c9ffe5;}</style></defs><title>logo 3</title><g id="Layer_2" data-name="Layer 2"><g id="Layer_1-2" data-name="Layer 1"><text class="cls-1" transform="translate(0 35.47) scale(1.01 1)">m<tspan class="cls-2" x="31.82" y="0">et</tspan><tspan x="65.78" y="0">abolic</tspan></text><text class="cls-3" transform="translate(0 87.92) scale(1.2 1)"><tspan class="cls-4">A</tspan><tspan x="34.85" y="0">T</tspan><tspan class="cls-5" x="58.91" y="0">L</tspan><tspan x="83.12" y="0">AS</tspan></text><path class="cls-6" d="M309.68,24.46l-.06,0a53.7,53.7,0,0,0-24.61.73c-15.12,4.21-19.87,13.41-33.8,16.16-5.47,1.08-14.12,1.52-25.89-3.23a45,45,0,0,1,84.36-13.7Z" transform="translate(0 -0.25)"/><path class="cls-7" d="M284.27,66.37A41.93,41.93,0,0,1,305.21,73a45,45,0,0,1-77.64-12.07l.14-.05c.56.61,1.11,1.19,1.66,1.74,8.24,8.3,15.47,10.62,20.75,11.12C262.77,74.9,269.5,66,284.27,66.37Z" transform="translate(0 -0.25)"/><path class="cls-8" d="M292,44.33a52.07,52.07,0,0,1,22.65,4.35A44.8,44.8,0,0,1,305.21,73a41.93,41.93,0,0,0-20.94-6.61c-14.78-.35-21.5,8.52-34.16,7.35-5.28-.49-12.51-2.81-20.75-11.12-.55-.55-1.1-1.14-1.66-1.74l-.14.05A44.56,44.56,0,0,1,225,49.49h.17c9.88,5.53,18,6.63,23.51,6.61C266,56,273.74,45.11,292,44.33Z" transform="translate(0 -0.25)"/><path class="cls-9" d="M314.76,45.25c0,1.16,0,2.3-.13,3.43A52.07,52.07,0,0,0,292,44.33c-18.25.78-26,11.71-43.35,11.76-5.54,0-13.63-1.08-23.51-6.61H225q-.2-2.09-.2-4.24a45.55,45.55,0,0,1,.56-7.09c11.77,4.75,20.42,4.31,25.89,3.23,13.93-2.76,18.67-12,33.8-16.16a53.7,53.7,0,0,1,24.61-.73l.06,0A44.76,44.76,0,0,1,314.76,45.25Z" transform="translate(0 -0.25)"/></g></g></svg>