<svg xmlns="http://www.w3.org/2000/svg" viewBox="0 0 355.57 123.7"><defs><style>.cls-1{fill:#64cc9a;}.cls-2{fill:#fff;}</style></defs><title>logo_v2</title><g id="Layer_2" data-name="Layer 2"><g id="Layer_1-2" data-name="Layer 1"><path class="cls-1" d="M2.79,14.76h7.34v3.53h.14A10.44,10.44,0,0,1,13,15.44a7.14,7.14,0,0,1,4.14-1.12,6.56,6.56,0,0,1,4,1.15A11.83,11.83,0,0,1,23.74,18a15.44,15.44,0,0,1,3-2.59,8.39,8.39,0,0,1,4.61-1.08,9.07,9.07,0,0,1,2.81.47,6.86,6.86,0,0,1,2.59,1.55,8.08,8.08,0,0,1,1.87,2.77,10.59,10.59,0,0,1,.72,4.14v28H32V26a4.89,4.89,0,0,0-.94-3.17,3.24,3.24,0,0,0-2.66-1.15A3.1,3.1,0,0,0,25.54,23a7.23,7.23,0,0,0-.79,3.74V51.26H17.41V26a4.89,4.89,0,0,0-.94-3.17,3.24,3.24,0,0,0-2.66-1.15A3.1,3.1,0,0,0,10.93,23a7.23,7.23,0,0,0-.79,3.74V51.26H2.79Z"/><path class="cls-1" d="M52.11,35.78v5a3.52,3.52,0,0,0,1,2.66,3.62,3.62,0,0,0,2.63.94,2.89,2.89,0,0,0,2.77-1.22,6.59,6.59,0,0,0,.83-2.45h7.34A12.2,12.2,0,0,1,65.9,45a9.56,9.56,0,0,1-2.2,3.46,10.33,10.33,0,0,1-3.46,2.38,11.41,11.41,0,0,1-4.54.86,11.29,11.29,0,0,1-5.83-1.44,9.68,9.68,0,0,1-4.82-7.13,27,27,0,0,1-.29-4.1V27a27,27,0,0,1,.29-4.1,9.68,9.68,0,0,1,4.82-7.13,11.3,11.3,0,0,1,5.83-1.44,11.66,11.66,0,0,1,4.57.86,9.64,9.64,0,0,1,3.46,2.41,10.84,10.84,0,0,1,2.16,3.64,13,13,0,0,1,.76,4.46V35.78Zm0-5.76h7.2V25.85a4.45,4.45,0,0,0-1-3.13,3.83,3.83,0,0,0-5.26,0,4.45,4.45,0,0,0-1,3.13Z"/><path class="cls-1" d="M72.05,3.67H79.4V14.76h4.54v5.76H79.4V40.75a6.32,6.32,0,0,0,.25,2,2.06,2.06,0,0,0,.79,1.08,2.93,2.93,0,0,0,1.4.43q.86.07,2.09.07v6.91h-3a9.9,9.9,0,0,1-4.21-.79,7.58,7.58,0,0,1-2.7-2,7.89,7.89,0,0,1-1.48-2.77,10.29,10.29,0,0,1-.47-3V20.52H68.38V14.76h3.67Z"/><path class="cls-1" d="M100.64,47.52h-.14a13.59,13.59,0,0,1-2.92,3.1,6.91,6.91,0,0,1-4.14,1.08,9.59,9.59,0,0,1-2.66-.4,6.65,6.65,0,0,1-2.56-1.44,7.53,7.53,0,0,1-1.94-3A13.57,13.57,0,0,1,85.52,42a26,26,0,0,1,.5-5.44,8.63,8.63,0,0,1,1.84-3.89,7.94,7.94,0,0,1,3.56-2.3,18,18,0,0,1,5.69-.76q.79,0,1.58.07l1.94.14V26a5.6,5.6,0,0,0-.79-3.1A3.17,3.17,0,0,0,97,21.67a4.15,4.15,0,0,0-2.63.94,4.44,4.44,0,0,0-1.55,2.74H85.66A12,12,0,0,1,89,17.42a10.42,10.42,0,0,1,3.46-2.27A11.85,11.85,0,0,1,97,14.33a12.77,12.77,0,0,1,4.32.72,9.53,9.53,0,0,1,3.49,2.16,10.3,10.3,0,0,1,2.34,3.6,13.53,13.53,0,0,1,.86,5V51.26h-7.34Zm0-12a12.06,12.06,0,0,0-2-.22,7.22,7.22,0,0,0-4.07,1.12q-1.69,1.12-1.69,4.07a5.35,5.35,0,0,0,1,3.38,3.35,3.35,0,0,0,2.81,1.3A3.62,3.62,0,0,0,99.59,44a5.17,5.17,0,0,0,1-3.46Z"/><path class="cls-1" d="M113.38,0h7.34V18.07h.14a8.88,8.88,0,0,1,2.92-2.77,7.59,7.59,0,0,1,3.85-1,7.73,7.73,0,0,1,4.14.94,7.88,7.88,0,0,1,2.41,2.38,7.26,7.26,0,0,1,.94,3,56.11,56.11,0,0,1,.22,5.83v13.9a32,32,0,0,1-.29,4.82,9.75,9.75,0,0,1-.94,3q-1.87,3.46-6.41,3.46a6.88,6.88,0,0,1-4.18-1.08A18,18,0,0,1,120.72,48v3.31h-7.34ZM128,26a5.89,5.89,0,0,0-.76-3,3,3,0,0,0-2.84-1.3,3.44,3.44,0,0,0-2.63,1.12,4,4,0,0,0-1,2.84V39.82a5.08,5.08,0,0,0,1,3.28,3.24,3.24,0,0,0,2.66,1.26A3,3,0,0,0,127.13,43a6.67,6.67,0,0,0,.86-3.6Z"/><path class="cls-1" d="M140.74,27a27,27,0,0,1,.29-4.1,9.68,9.68,0,0,1,4.82-7.13,12.53,12.53,0,0,1,11.66,0,9.87,9.87,0,0,1,3.74,3.82,10,10,0,0,1,1.08,3.31,27.17,27.17,0,0,1,.29,4.1V39a27.14,27.14,0,0,1-.29,4.1,10,10,0,0,1-1.08,3.31,9.86,9.86,0,0,1-3.74,3.82,12.53,12.53,0,0,1-11.66,0A9.68,9.68,0,0,1,141,43.13a27,27,0,0,1-.29-4.1Zm7.34,13.18a4.45,4.45,0,0,0,1,3.13,3.83,3.83,0,0,0,5.26,0,4.45,4.45,0,0,0,1-3.13V25.85a4.45,4.45,0,0,0-1-3.13,3.83,3.83,0,0,0-5.26,0,4.45,4.45,0,0,0-1,3.13Z"/><path class="cls-1" d="M167.59,0h7.34V41a4,4,0,0,0,.76,2.84,4.76,4.76,0,0,0,2.84,1V51.7a24.28,24.28,0,0,1-4.57-.4,7.83,7.83,0,0,1-3.46-1.51,7,7,0,0,1-2.16-3.13,15,15,0,0,1-.76-5.18Z"/><path class="cls-1" d="M181.42,0h7.34V7.34h-7.34Zm0,14.76h7.34v36.5h-7.34Z"/><path class="cls-1" d="M202.59,40.75a3.52,3.52,0,0,0,1,2.66,3.62,3.62,0,0,0,2.63.94A2.89,2.89,0,0,0,209,43.13a6.59,6.59,0,0,0,.83-2.45h7.34a12.2,12.2,0,0,1-.76,4.32,9.56,9.56,0,0,1-2.2,3.46,10.32,10.32,0,0,1-3.46,2.38,12.44,12.44,0,0,1-10.37-.58,9.68,9.68,0,0,1-4.82-7.13,27,27,0,0,1-.29-4.1V27a27,27,0,0,1,.29-4.1,9.68,9.68,0,0,1,4.82-7.13,11.3,11.3,0,0,1,5.83-1.44,11.67,11.67,0,0,1,4.57.86,9.64,9.64,0,0,1,3.46,2.41,10.71,10.71,0,0,1,2.16,3.71,14.08,14.08,0,0,1,.76,4.68h-7.34a4.69,4.69,0,0,0-1-3.28,3.83,3.83,0,0,0-5.26,0,4.45,4.45,0,0,0-1,3.13Z"/><path class="cls-1" d="M18.62,72h10L47.2,123.26H35.25l-3.51-11H15.46l-3.51,11H0Zm5,14.76h-.23l-5.86,18.58H29.51Z"/><path class="cls-1" d="M54.46,78.91H40.64V72H80.23v6.91H66.41v44.35H54.46Z"/><path class="cls-1" d="M85.5,72H97.44v43.92H121.1v7.34H85.5Z"/><path class="cls-1" d="M142.07,72h10l18.62,51.26H158.7l-3.51-11H138.9l-3.51,11H123.44Zm5,14.76h-.23L141,105.34H153Z"/><path class="cls-1" d="M215.15,86.76H203.2V85.1a5.81,5.81,0,0,0-1.93-4.36q-1.93-1.84-6.5-1.84a12,12,0,0,0-4,.58A6.49,6.49,0,0,0,188.27,81,5,5,0,0,0,187,83.05a8.71,8.71,0,0,0-.35,2.48,15.71,15.71,0,0,0,.18,2.56,3.41,3.41,0,0,0,.88,1.8,6,6,0,0,0,2,1.33,24.59,24.59,0,0,0,3.69,1.15l9.13,2.23a28.82,28.82,0,0,1,6.44,2.2,11.42,11.42,0,0,1,3.81,3,9.26,9.26,0,0,1,1.82,3.89,24.18,24.18,0,0,1,.47,5,16.78,16.78,0,0,1-1.05,6,11.3,11.3,0,0,1-3.46,4.75,17.63,17.63,0,0,1-6.38,3.13,35.42,35.42,0,0,1-9.72,1.15,33.32,33.32,0,0,1-8.08-.94A23.47,23.47,0,0,1,180,120.2a13.92,13.92,0,0,1-4.28-3.85,8.18,8.18,0,0,1-1.58-4.82v-2.74H186.1v2.3a4.7,4.7,0,0,0,1.93,3.64q1.93,1.62,6.5,1.62a16.33,16.33,0,0,0,4.74-.54,5.73,5.73,0,0,0,2.58-1.51,4.62,4.62,0,0,0,1.11-2.41,19.88,19.88,0,0,0,.23-3.17,19.3,19.3,0,0,0-.23-3.31,4,4,0,0,0-1-2.09,5.63,5.63,0,0,0-2.11-1.3q-1.35-.5-3.57-1.08l-8.55-2.16q-7.73-1.95-10.37-5.15A13,13,0,0,1,176,80.14a12.42,12.42,0,0,1,3.81-4.46,19.87,19.87,0,0,1,6.38-3,32.67,32.67,0,0,1,9-1.12,30.85,30.85,0,0,1,8.14,1,23.54,23.54,0,0,1,6.32,2.66,13.5,13.5,0,0,1,4,3.71,7.37,7.37,0,0,1,1.41,4.21Z"/><polygon class="cls-1" points="315.54 120.13 355.57 80.1 340.92 25.42 286.23 10.77 246.2 50.8 260.85 105.48 315.54 120.13"/><rect class="cls-2" x="302.64" y="91.08" width="52.09" height="4.34" transform="translate(30.33 259.73) rotate(-45)"/></g></g></svg>